<svg width="82" height="18" viewBox="0 0 82 18" fill="none" xmlns="http://www.w3.org/2000/svg">
<path d="M4.752 14.064H12.672V16.8H0L8.04 2.736H1.08V0H12.792L4.752 14.064Z" fill="white"/>
<path d="M19.2339 17.04C17.9699 17.04 16.8739 16.76 15.9459 16.2C15.0179 15.64 14.3059 14.888 13.8099 13.944C13.3139 13 13.0659 11.96 13.0659 10.824C13.0659 9.688 13.3139 8.64 13.8099 7.68C14.3059 6.72 15.0179 5.96 15.9459 5.4C16.8739 4.84 17.9699 4.56 19.2339 4.56C20.4979 4.56 21.5939 4.84 22.5219 5.4C23.4499 5.96 24.1619 6.72 24.6579 7.68C25.1539 8.64 25.4019 9.688 25.4019 10.824C25.4019 11.96 25.1539 13 24.6579 13.944C24.1619 14.888 23.4499 15.64 22.5219 16.2C21.5939 16.76 20.4979 17.04 19.2339 17.04ZM19.2339 14.592C20.2099 14.592 20.9699 14.248 21.5139 13.56C22.0739 12.872 22.3539 11.96 22.3539 10.824C22.3539 9.672 22.0739 8.752 21.5139 8.064C20.9699 7.36 20.2099 7.008 19.2339 7.008C18.2579 7.008 17.4899 7.36 16.9299 8.064C16.3859 8.752 16.1139 9.672 16.1139 10.824C16.1139 11.96 16.3859 12.872 16.9299 13.56C17.4899 14.248 18.2579 14.592 19.2339 14.592Z" fill="white"/>
<path d="M33.5214 4.608C35.0094 4.608 36.1374 5.104 36.9054 6.096C37.6734 7.088 38.0574 8.424 38.0574 10.104V16.8H35.0814V10.344C35.0814 9.224 34.8894 8.4 34.5054 7.872C34.1374 7.328 33.5374 7.056 32.7054 7.056C31.7934 7.056 31.0414 7.4 30.4494 8.088V16.8H27.4734V4.8H30.2574L30.3054 5.64C31.3134 4.952 32.3854 4.608 33.5214 4.608Z" fill="white"/>
<path d="M40.7156 0H43.6916V2.976H40.7156V0ZM40.7156 4.8H43.6916V16.8H40.7156V4.8Z" fill="white"/>
<path d="M51.9292 17.04C50.6652 17.04 49.5693 16.76 48.6413 16.2C47.7132 15.64 47.0012 14.888 46.5052 13.944C46.0093 13 45.7612 11.96 45.7612 10.824C45.7612 9.688 46.0093 8.64 46.5052 7.68C47.0012 6.72 47.7132 5.96 48.6413 5.4C49.5693 4.84 50.6652 4.56 51.9292 4.56C53.1932 4.56 54.2892 4.84 55.2173 5.4C56.1453 5.96 56.8572 6.72 57.3532 7.68C57.8493 8.64 58.0973 9.688 58.0973 10.824C58.0973 11.96 57.8493 13 57.3532 13.944C56.8572 14.888 56.1453 15.64 55.2173 16.2C54.2892 16.76 53.1932 17.04 51.9292 17.04ZM51.9292 14.592C52.9053 14.592 53.6652 14.248 54.2092 13.56C54.7692 12.872 55.0492 11.96 55.0492 10.824C55.0492 9.672 54.7692 8.752 54.2092 8.064C53.6652 7.36 52.9053 7.008 51.9292 7.008C50.9532 7.008 50.1852 7.36 49.6252 8.064C49.0812 8.752 48.8092 9.672 48.8092 10.824C48.8092 11.96 49.0812 12.872 49.6252 13.56C50.1852 14.248 50.9532 14.592 51.9292 14.592Z" fill="white"/>
<path d="M66.2168 4.608C67.7048 4.608 68.8327 5.104 69.6007 6.096C70.3687 7.088 70.7527 8.424 70.7527 10.104V16.8H67.7767V10.344C67.7767 9.224 67.5848 8.4 67.2008 7.872C66.8327 7.328 66.2327 7.056 65.4007 7.056C64.4887 7.056 63.7367 7.4 63.1447 8.088V16.8H60.1687V4.8H62.9527L63.0007 5.64C64.0088 4.952 65.0807 4.608 66.2168 4.608Z" fill="white"/>
<path d="M76.8189 17.04C76.0509 17.04 75.3469 16.968 74.7069 16.824C74.0829 16.68 73.4349 16.456 72.7629 16.152L73.0269 13.608C73.6989 14.008 74.3229 14.312 74.8989 14.52C75.4909 14.712 76.0989 14.808 76.7229 14.808C77.9389 14.808 78.5469 14.408 78.5469 13.608C78.5469 13.176 78.3869 12.848 78.0669 12.624C77.7469 12.384 77.1709 12.104 76.3389 11.784C75.1549 11.352 74.2829 10.864 73.7229 10.32C73.1629 9.76 72.8829 9.008 72.8829 8.064C72.8829 7.024 73.2829 6.184 74.0829 5.544C74.8829 4.888 75.9629 4.56 77.3229 4.56C78.6829 4.56 79.9229 4.872 81.0429 5.496L80.7789 8.04C80.1709 7.624 79.5949 7.304 79.0509 7.08C78.5229 6.856 77.9629 6.744 77.3709 6.744C76.8589 6.744 76.4589 6.848 76.1709 7.056C75.8989 7.264 75.7629 7.56 75.7629 7.944C75.7629 8.248 75.8429 8.496 76.0029 8.688C76.1789 8.88 76.4189 9.056 76.7229 9.216C77.0269 9.36 77.5309 9.568 78.2349 9.84C79.4029 10.288 80.2429 10.784 80.7549 11.328C81.2669 11.856 81.5229 12.568 81.5229 13.464C81.5229 14.6 81.1149 15.48 80.2989 16.104C79.4829 16.728 78.3229 17.04 76.8189 17.04Z" fill="white"/>
</svg>
